<svg width="20" height="20" viewBox="0 0 20 20" fill="none" xmlns="http://www.w3.org/2000/svg">
<path d="M14.8613 3.75001V2.36112C14.8613 2.17694 14.7881 2.0003 14.6579 1.87007C14.5277 1.73984 14.351 1.66667 14.1669 1.66667C13.9827 1.66667 13.806 1.73984 13.6758 1.87007C13.5456 2.0003 13.4724 2.17694 13.4724 2.36112V3.75001H14.8613Z" fill="#FF9800"/>
<path d="M6.5278 3.75001V2.36112C6.5278 2.17694 6.45464 2.0003 6.32441 1.87007C6.19417 1.73984 6.01754 1.66667 5.83336 1.66667C5.64918 1.66667 5.47255 1.73984 5.34231 1.87007C5.21208 2.0003 5.13892 2.17694 5.13892 2.36112V3.75001H6.5278Z" fill="#FF9800"/>
<path d="M16.2501 17.6389H3.75008C3.19755 17.6389 2.66764 17.4194 2.27694 17.0287C1.88624 16.638 1.66675 16.1081 1.66675 15.5556L1.66675 6.52778C1.66675 5.97524 1.88624 5.44534 2.27694 5.05464C2.66764 4.66394 3.19755 4.44444 3.75008 4.44444H16.2501C16.8026 4.44444 17.3325 4.66394 17.7232 5.05464C18.1139 5.44534 18.3334 5.97524 18.3334 6.52778V15.5556C18.3334 16.1081 18.1139 16.638 17.7232 17.0287C17.3325 17.4194 16.8026 17.6389 16.2501 17.6389ZM16.9445 7.91667H3.05564V15.5556C3.05564 15.7397 3.1288 15.9164 3.25903 16.0466C3.38927 16.1768 3.5659 16.25 3.75008 16.25H16.2501C16.4343 16.25 16.6109 16.1768 16.7411 16.0466C16.8714 15.9164 16.9445 15.7397 16.9445 15.5556V7.91667Z" fill="#FF9800"/>
<path d="M4.44458 9.30556H7.22236V11.3889H4.44458V9.30556Z" fill="#FF9800"/>
<path d="M8.61108 9.30556H11.3889V11.3889H8.61108V9.30556Z" fill="#FF9800"/>
<path d="M4.44458 12.7778H7.22236V14.8611H4.44458V12.7778Z" fill="#FF9800"/>
<path d="M8.61108 12.7778H11.3889V14.8611H8.61108V12.7778Z" fill="#FF9800"/>
<path d="M12.7778 9.30556H15.5556V11.3889H12.7778V9.30556Z" fill="#FF9800"/>
</svg>
